<?xml version="1.0" encoding="UTF-8" standalone="no"?>
<!DOCTYPE svg PUBLIC "-//W3C//DTD SVG 1.1//EN"
 "http://www.w3.org/Graphics/SVG/1.1/DTD/svg11.dtd">
<!-- Generated by graphviz version 7.0.0 (20221023.0053)
 -->
<!-- Title: graph Pages: 1 -->
<svg width="206pt" height="116pt"
 viewBox="0.00 0.00 206.00 116.00" xmlns="http://www.w3.org/2000/svg" xmlns:xlink="http://www.w3.org/1999/xlink">
<g id="graph0" class="graph" transform="scale(1 1) rotate(0) translate(4 112)">
<title>graph</title>
<polygon fill="white" stroke="none" points="-4,4 -4,-112 202,-112 202,4 -4,4"/>
<!-- :user -->
<g id="node1" class="node">
<title>:user</title>
<ellipse fill="none" stroke="black" cx="99" cy="-90" rx="27.9" ry="18"/>
<text text-anchor="middle" x="99" y="-86.3" font-family="Times,serif" font-size="14.00">:user</text>
</g>
<!-- :u1 -->
<g id="node2" class="node">
<title>:u1</title>
<ellipse fill="none" stroke="black" cx="27" cy="-18" rx="27" ry="18"/>
<text text-anchor="middle" x="27" y="-14.3" font-family="Times,serif" font-size="14.00">:u1</text>
</g>
<!-- :user&#45;&gt;:u1 -->
<g id="edge1" class="edge">
<title>:user&#45;&gt;:u1</title>
<path fill="none" stroke="black" d="M84.08,-74.5C74.23,-64.92 61.14,-52.19 49.97,-41.34"/>
<polygon fill="black" stroke="black" points="52.59,-39 42.98,-34.54 47.71,-44.02 52.59,-39"/>
</g>
<!-- :u0 -->
<g id="node3" class="node">
<title>:u0</title>
<ellipse fill="none" stroke="black" cx="99" cy="-18" rx="27" ry="18"/>
<text text-anchor="middle" x="99" y="-14.3" font-family="Times,serif" font-size="14.00">:u0</text>
</g>
<!-- :user&#45;&gt;:u0 -->
<g id="edge2" class="edge">
<title>:user&#45;&gt;:u0</title>
<path fill="none" stroke="black" d="M99,-71.7C99,-64.41 99,-55.73 99,-47.54"/>
<polygon fill="black" stroke="black" points="102.5,-47.62 99,-37.62 95.5,-47.62 102.5,-47.62"/>
</g>
<!-- :u2 -->
<g id="node4" class="node">
<title>:u2</title>
<ellipse fill="none" stroke="black" cx="171" cy="-18" rx="27" ry="18"/>
<text text-anchor="middle" x="171" y="-14.3" font-family="Times,serif" font-size="14.00">:u2</text>
</g>
<!-- :user&#45;&gt;:u2 -->
<g id="edge3" class="edge">
<title>:user&#45;&gt;:u2</title>
<path fill="none" stroke="black" d="M113.92,-74.5C123.77,-64.92 136.86,-52.19 148.03,-41.34"/>
<polygon fill="black" stroke="black" points="150.29,-44.02 155.02,-34.54 145.41,-39 150.29,-44.02"/>
</g>
</g>
</svg>
