<?xml version="1.0" encoding="UTF-8" standalone="no"?>
<!DOCTYPE svg PUBLIC "-//W3C//DTD SVG 1.1//EN"
 "http://www.w3.org/Graphics/SVG/1.1/DTD/svg11.dtd">
<!-- Generated by graphviz version 7.0.0 (20221023.0053)
 -->
<!-- Title: graph Pages: 1 -->
<svg width="464pt" height="188pt"
 viewBox="0.00 0.00 463.95 188.00" xmlns="http://www.w3.org/2000/svg" xmlns:xlink="http://www.w3.org/1999/xlink">
<g id="graph0" class="graph" transform="scale(1 1) rotate(0) translate(4 184)">
<title>graph</title>
<polygon fill="white" stroke="none" points="-4,4 -4,-184 459.95,-184 459.95,4 -4,4"/>
<!-- :p2 -->
<g id="node1" class="node">
<title>:p2</title>
<ellipse fill="none" stroke="black" cx="27" cy="-90" rx="27" ry="18"/>
<text text-anchor="middle" x="27" y="-86.3" font-family="Times,serif" font-size="14.00">:p2</text>
</g>
<!-- :u0 -->
<g id="node2" class="node">
<title>:u0</title>
<ellipse fill="none" stroke="black" cx="283" cy="-18" rx="27" ry="18"/>
<text text-anchor="middle" x="283" y="-14.3" font-family="Times,serif" font-size="14.00">:u0</text>
</g>
<!-- :p2&#45;&gt;:u0 -->
<g id="edge1" class="edge">
<title>:p2&#45;&gt;:u0</title>
<path fill="none" stroke="black" d="M48.02,-78.19C52.86,-75.95 58.05,-73.75 63,-72 125.59,-49.95 201.36,-33.92 245.67,-25.57"/>
<polygon fill="black" stroke="black" points="246.08,-29.06 255.27,-23.79 244.8,-22.17 246.08,-29.06"/>
</g>
<!-- :most&#45;favorited&#45;post -->
<g id="node3" class="node">
<title>:most&#45;favorited&#45;post</title>
<ellipse fill="none" stroke="black" cx="155" cy="-90" rx="83.39" ry="18"/>
<text text-anchor="middle" x="155" y="-86.3" font-family="Times,serif" font-size="14.00">:most&#45;favorited&#45;post</text>
</g>
<!-- :most&#45;favorited&#45;post&#45;&gt;:u0 -->
<g id="edge2" class="edge">
<title>:most&#45;favorited&#45;post&#45;&gt;:u0</title>
<path fill="none" stroke="black" d="M184.69,-72.76C205.06,-61.62 232.03,-46.88 252.56,-35.64"/>
<polygon fill="black" stroke="black" points="254.22,-38.73 261.32,-30.86 250.87,-32.58 254.22,-38.73"/>
</g>
<!-- :p1 -->
<g id="node4" class="node">
<title>:p1</title>
<ellipse fill="none" stroke="black" cx="283" cy="-90" rx="27" ry="18"/>
<text text-anchor="middle" x="283" y="-86.3" font-family="Times,serif" font-size="14.00">:p1</text>
</g>
<!-- :p1&#45;&gt;:u0 -->
<g id="edge3" class="edge">
<title>:p1&#45;&gt;:u0</title>
<path fill="none" stroke="black" d="M283,-71.7C283,-64.41 283,-55.73 283,-47.54"/>
<polygon fill="black" stroke="black" points="286.5,-47.62 283,-37.62 279.5,-47.62 286.5,-47.62"/>
</g>
<!-- :p0 -->
<g id="node5" class="node">
<title>:p0</title>
<ellipse fill="none" stroke="black" cx="355" cy="-90" rx="27" ry="18"/>
<text text-anchor="middle" x="355" y="-86.3" font-family="Times,serif" font-size="14.00">:p0</text>
</g>
<!-- :p0&#45;&gt;:u0 -->
<g id="edge4" class="edge">
<title>:p0&#45;&gt;:u0</title>
<path fill="none" stroke="black" d="M340.08,-74.5C330.23,-64.92 317.14,-52.19 305.97,-41.34"/>
<polygon fill="black" stroke="black" points="308.59,-39 298.98,-34.54 303.71,-44.02 308.59,-39"/>
</g>
<!-- :post -->
<g id="node6" class="node">
<title>:post</title>
<ellipse fill="none" stroke="black" cx="219" cy="-162" rx="27.9" ry="18"/>
<text text-anchor="middle" x="219" y="-158.3" font-family="Times,serif" font-size="14.00">:post</text>
</g>
<!-- :post&#45;&gt;:p2 -->
<g id="edge5" class="edge">
<title>:post&#45;&gt;:p2</title>
<path fill="none" stroke="black" d="M194.1,-153.5C163.03,-143.93 108.48,-126.39 63,-108 61.48,-107.38 59.93,-106.74 58.37,-106.07"/>
<polygon fill="black" stroke="black" points="60.08,-103 49.52,-102.09 57.21,-109.38 60.08,-103"/>
</g>
<!-- :post&#45;&gt;:most&#45;favorited&#45;post -->
<g id="edge6" class="edge">
<title>:post&#45;&gt;:most&#45;favorited&#45;post</title>
<path fill="none" stroke="black" d="M205.43,-146.15C197.54,-137.53 187.38,-126.42 178.25,-116.43"/>
<polygon fill="black" stroke="black" points="180.93,-114.18 171.6,-109.16 175.77,-118.9 180.93,-114.18"/>
</g>
<!-- :post&#45;&gt;:p1 -->
<g id="edge7" class="edge">
<title>:post&#45;&gt;:p1</title>
<path fill="none" stroke="black" d="M232.57,-146.15C241.06,-136.87 252.17,-124.73 261.8,-114.19"/>
<polygon fill="black" stroke="black" points="264.26,-116.68 268.43,-106.94 259.09,-111.96 264.26,-116.68"/>
</g>
<!-- :post&#45;&gt;:p0 -->
<g id="edge8" class="edge">
<title>:post&#45;&gt;:p0</title>
<path fill="none" stroke="black" d="M240.25,-150.06C262.71,-138.5 298.35,-120.16 323.95,-106.98"/>
<polygon fill="black" stroke="black" points="325.26,-110.24 332.55,-102.55 322.06,-104.02 325.26,-110.24"/>
</g>
<!-- :user -->
<g id="node7" class="node">
<title>:user</title>
<ellipse fill="none" stroke="black" cx="428" cy="-90" rx="27.9" ry="18"/>
<text text-anchor="middle" x="428" y="-86.3" font-family="Times,serif" font-size="14.00">:user</text>
</g>
<!-- :user&#45;&gt;:u0 -->
<g id="edge9" class="edge">
<title>:user&#45;&gt;:u0</title>
<path fill="none" stroke="black" d="M405.98,-78.37C381.64,-66.62 342.23,-47.59 314.6,-34.26"/>
<polygon fill="black" stroke="black" points="316.17,-31.13 305.65,-29.93 313.13,-37.43 316.17,-31.13"/>
</g>
</g>
</svg>
