<?xml version="1.0" encoding="UTF-8" standalone="no"?>
<!DOCTYPE svg PUBLIC "-//W3C//DTD SVG 1.1//EN"
 "http://www.w3.org/Graphics/SVG/1.1/DTD/svg11.dtd">
<!-- Generated by graphviz version 7.0.0 (20221023.0053)
 -->
<!-- Title: graph Pages: 1 -->
<svg width="208pt" height="188pt"
 viewBox="0.00 0.00 207.95 188.00" xmlns="http://www.w3.org/2000/svg" xmlns:xlink="http://www.w3.org/1999/xlink">
<g id="graph0" class="graph" transform="scale(1 1) rotate(0) translate(4 184)">
<title>graph</title>
<polygon fill="white" stroke="none" points="-4,4 -4,-184 203.95,-184 203.95,4 -4,4"/>
<!-- :p1 -->
<g id="node1" class="node">
<title>:p1</title>
<ellipse fill="none" stroke="black" cx="27" cy="-90" rx="27" ry="18"/>
<text text-anchor="middle" x="27" y="-86.3" font-family="Times,serif" font-size="14.00">:p1</text>
</g>
<!-- :u0 -->
<g id="node2" class="node">
<title>:u0</title>
<ellipse fill="none" stroke="black" cx="99" cy="-18" rx="27" ry="18"/>
<text text-anchor="middle" x="99" y="-14.3" font-family="Times,serif" font-size="14.00">:u0</text>
</g>
<!-- :p1&#45;&gt;:u0 -->
<g id="edge1" class="edge">
<title>:p1&#45;&gt;:u0</title>
<path fill="none" stroke="black" d="M41.92,-74.5C51.77,-64.92 64.86,-52.19 76.03,-41.34"/>
<polygon fill="black" stroke="black" points="78.29,-44.02 83.02,-34.54 73.41,-39 78.29,-44.02"/>
</g>
<!-- :p0 -->
<g id="node3" class="node">
<title>:p0</title>
<ellipse fill="none" stroke="black" cx="99" cy="-90" rx="27" ry="18"/>
<text text-anchor="middle" x="99" y="-86.3" font-family="Times,serif" font-size="14.00">:p0</text>
</g>
<!-- :p0&#45;&gt;:u0 -->
<g id="edge2" class="edge">
<title>:p0&#45;&gt;:u0</title>
<path fill="none" stroke="black" d="M99,-71.7C99,-64.41 99,-55.73 99,-47.54"/>
<polygon fill="black" stroke="black" points="102.5,-47.62 99,-37.62 95.5,-47.62 102.5,-47.62"/>
</g>
<!-- :post -->
<g id="node4" class="node">
<title>:post</title>
<ellipse fill="none" stroke="black" cx="63" cy="-162" rx="27.9" ry="18"/>
<text text-anchor="middle" x="63" y="-158.3" font-family="Times,serif" font-size="14.00">:post</text>
</g>
<!-- :post&#45;&gt;:p1 -->
<g id="edge3" class="edge">
<title>:post&#45;&gt;:p1</title>
<path fill="none" stroke="black" d="M54.47,-144.41C50.34,-136.39 45.29,-126.57 40.65,-117.54"/>
<polygon fill="black" stroke="black" points="43.85,-116.11 36.16,-108.82 37.62,-119.31 43.85,-116.11"/>
</g>
<!-- :post&#45;&gt;:p0 -->
<g id="edge4" class="edge">
<title>:post&#45;&gt;:p0</title>
<path fill="none" stroke="black" d="M71.53,-144.41C75.66,-136.39 80.71,-126.57 85.35,-117.54"/>
<polygon fill="black" stroke="black" points="88.38,-119.31 89.84,-108.82 82.15,-116.11 88.38,-119.31"/>
</g>
<!-- :user -->
<g id="node5" class="node">
<title>:user</title>
<ellipse fill="none" stroke="black" cx="172" cy="-90" rx="27.9" ry="18"/>
<text text-anchor="middle" x="172" y="-86.3" font-family="Times,serif" font-size="14.00">:user</text>
</g>
<!-- :user&#45;&gt;:u0 -->
<g id="edge5" class="edge">
<title>:user&#45;&gt;:u0</title>
<path fill="none" stroke="black" d="M156.87,-74.5C146.82,-64.86 133.44,-52.02 122.07,-41.12"/>
<polygon fill="black" stroke="black" points="124.59,-38.69 114.95,-34.29 119.74,-43.74 124.59,-38.69"/>
</g>
</g>
</svg>
