<?xml version="1.0" encoding="UTF-8" standalone="no"?>
<!DOCTYPE svg PUBLIC "-//W3C//DTD SVG 1.1//EN"
 "http://www.w3.org/Graphics/SVG/1.1/DTD/svg11.dtd">
<!-- Generated by graphviz version 7.0.0 (20221023.0053)
 -->
<!-- Title: graph Pages: 1 -->
<svg width="273pt" height="260pt"
 viewBox="0.00 0.00 273.00 260.00" xmlns="http://www.w3.org/2000/svg" xmlns:xlink="http://www.w3.org/1999/xlink">
<g id="graph0" class="graph" transform="scale(1 1) rotate(0) translate(4 256)">
<title>graph</title>
<polygon fill="white" stroke="none" points="-4,4 -4,-256 269,-256 269,4 -4,4"/>
<!-- :t0 -->
<g id="node1" class="node">
<title>:t0</title>
<ellipse fill="none" stroke="black" cx="211" cy="-90" rx="27" ry="18"/>
<text text-anchor="middle" x="211" y="-86.3" font-family="Times,serif" font-size="14.00">:t0</text>
</g>
<!-- :u0 -->
<g id="node2" class="node">
<title>:u0</title>
<ellipse fill="none" stroke="black" cx="183" cy="-18" rx="27" ry="18"/>
<text text-anchor="middle" x="183" y="-14.3" font-family="Times,serif" font-size="14.00">:u0</text>
</g>
<!-- :t0&#45;&gt;:u0 -->
<g id="edge1" class="edge">
<title>:t0&#45;&gt;:u0</title>
<path fill="none" stroke="black" d="M204.36,-72.41C201.23,-64.57 197.4,-54.99 193.85,-46.13"/>
<polygon fill="black" stroke="black" points="197.11,-44.86 190.15,-36.88 190.61,-47.46 197.11,-44.86"/>
</g>
<!-- :topic -->
<g id="node3" class="node">
<title>:topic</title>
<ellipse fill="none" stroke="black" cx="162" cy="-162" rx="30.59" ry="18"/>
<text text-anchor="middle" x="162" y="-158.3" font-family="Times,serif" font-size="14.00">:topic</text>
</g>
<!-- :topic&#45;&gt;:t0 -->
<g id="edge2" class="edge">
<title>:topic&#45;&gt;:t0</title>
<path fill="none" stroke="black" d="M173.12,-145.12C179.13,-136.52 186.7,-125.72 193.49,-116.02"/>
<polygon fill="black" stroke="black" points="196.19,-118.26 199.06,-108.06 190.46,-114.25 196.19,-118.26"/>
</g>
<!-- :t1 -->
<g id="node4" class="node">
<title>:t1</title>
<ellipse fill="none" stroke="black" cx="27" cy="-90" rx="27" ry="18"/>
<text text-anchor="middle" x="27" y="-86.3" font-family="Times,serif" font-size="14.00">:t1</text>
</g>
<!-- :topic&#45;&gt;:t1 -->
<g id="edge3" class="edge">
<title>:topic&#45;&gt;:t1</title>
<path fill="none" stroke="black" d="M139.71,-149.44C117.43,-137.89 82.99,-120.03 58.04,-107.09"/>
<polygon fill="black" stroke="black" points="59.82,-104.08 49.34,-102.58 56.6,-110.29 59.82,-104.08"/>
</g>
<!-- :hamburglar -->
<g id="node8" class="node">
<title>:hamburglar</title>
<ellipse fill="none" stroke="black" cx="69" cy="-18" rx="53.89" ry="18"/>
<text text-anchor="middle" x="69" y="-14.3" font-family="Times,serif" font-size="14.00">:hamburglar</text>
</g>
<!-- :t1&#45;&gt;:hamburglar -->
<g id="edge10" class="edge">
<title>:t1&#45;&gt;:hamburglar</title>
<path fill="none" stroke="black" d="M36.74,-72.76C41.53,-64.78 47.43,-54.95 52.87,-45.89"/>
<polygon fill="black" stroke="black" points="55.8,-47.8 57.95,-37.42 49.8,-44.2 55.8,-47.8"/>
</g>
<!-- :p1 -->
<g id="node5" class="node">
<title>:p1</title>
<ellipse fill="none" stroke="black" cx="86" cy="-162" rx="27" ry="18"/>
<text text-anchor="middle" x="86" y="-158.3" font-family="Times,serif" font-size="14.00">:p1</text>
</g>
<!-- :p1&#45;&gt;:u0 -->
<g id="edge4" class="edge">
<title>:p1&#45;&gt;:u0</title>
<path fill="none" stroke="black" d="M101.51,-147.17C112.31,-137.02 126.59,-122.53 137,-108 150.92,-88.56 163.16,-64.34 171.5,-46.07"/>
<polygon fill="black" stroke="black" points="174.69,-47.5 175.56,-36.95 168.3,-44.66 174.69,-47.5"/>
</g>
<!-- :p1&#45;&gt;:t1 -->
<g id="edge5" class="edge">
<title>:p1&#45;&gt;:t1</title>
<path fill="none" stroke="black" d="M73.2,-145.81C65.54,-136.73 55.65,-125 46.99,-114.72"/>
<polygon fill="black" stroke="black" points="49.87,-112.71 40.75,-107.32 44.52,-117.22 49.87,-112.71"/>
</g>
<!-- :p0 -->
<g id="node6" class="node">
<title>:p0</title>
<ellipse fill="none" stroke="black" cx="238" cy="-162" rx="27" ry="18"/>
<text text-anchor="middle" x="238" y="-158.3" font-family="Times,serif" font-size="14.00">:p0</text>
</g>
<!-- :p0&#45;&gt;:t0 -->
<g id="edge6" class="edge">
<title>:p0&#45;&gt;:t0</title>
<path fill="none" stroke="black" d="M231.46,-144.05C228.48,-136.32 224.87,-126.96 221.52,-118.27"/>
<polygon fill="black" stroke="black" points="224.88,-117.27 218.02,-109.2 218.35,-119.79 224.88,-117.27"/>
</g>
<!-- :p0&#45;&gt;:u0 -->
<g id="edge7" class="edge">
<title>:p0&#45;&gt;:u0</title>
<path fill="none" stroke="black" d="M244.62,-144.38C250.93,-125.83 257.97,-95.33 247,-72 239.96,-57.02 226.37,-44.82 213.52,-35.92"/>
<polygon fill="black" stroke="black" points="215.53,-33.05 205.23,-30.58 211.74,-38.94 215.53,-33.05"/>
</g>
<!-- :post -->
<g id="node7" class="node">
<title>:post</title>
<ellipse fill="none" stroke="black" cx="162" cy="-234" rx="27.9" ry="18"/>
<text text-anchor="middle" x="162" y="-230.3" font-family="Times,serif" font-size="14.00">:post</text>
</g>
<!-- :post&#45;&gt;:p1 -->
<g id="edge8" class="edge">
<title>:post&#45;&gt;:p1</title>
<path fill="none" stroke="black" d="M146.62,-218.83C136.01,-209.06 121.7,-195.88 109.65,-184.78"/>
<polygon fill="black" stroke="black" points="112.2,-182.37 102.47,-178.17 107.45,-187.52 112.2,-182.37"/>
</g>
<!-- :post&#45;&gt;:p0 -->
<g id="edge9" class="edge">
<title>:post&#45;&gt;:p0</title>
<path fill="none" stroke="black" d="M177.38,-218.83C187.99,-209.06 202.3,-195.88 214.35,-184.78"/>
<polygon fill="black" stroke="black" points="216.55,-187.52 221.53,-178.17 211.8,-182.37 216.55,-187.52"/>
</g>
<!-- :user -->
<g id="node9" class="node">
<title>:user</title>
<ellipse fill="none" stroke="black" cx="100" cy="-90" rx="27.9" ry="18"/>
<text text-anchor="middle" x="100" y="-86.3" font-family="Times,serif" font-size="14.00">:user</text>
</g>
<!-- :user&#45;&gt;:u0 -->
<g id="edge12" class="edge">
<title>:user&#45;&gt;:u0</title>
<path fill="none" stroke="black" d="M116.4,-75.17C128.22,-65.2 144.4,-51.56 157.85,-40.21"/>
<polygon fill="black" stroke="black" points="160.09,-42.9 165.48,-33.78 155.58,-37.55 160.09,-42.9"/>
</g>
<!-- :user&#45;&gt;:hamburglar -->
<g id="edge11" class="edge">
<title>:user&#45;&gt;:hamburglar</title>
<path fill="none" stroke="black" d="M92.65,-72.41C89.19,-64.59 84.97,-55.06 81.06,-46.23"/>
<polygon fill="black" stroke="black" points="84.37,-45.07 77.12,-37.34 77.97,-47.9 84.37,-45.07"/>
</g>
</g>
</svg>
