<?xml version="1.0" encoding="UTF-8" standalone="no"?>
<!DOCTYPE svg PUBLIC "-//W3C//DTD SVG 1.1//EN"
 "http://www.w3.org/Graphics/SVG/1.1/DTD/svg11.dtd">
<!-- Generated by graphviz version 7.0.0 (20221023.0053)
 -->
<!-- Title: graph Pages: 1 -->
<svg width="291pt" height="260pt"
 viewBox="0.00 0.00 291.00 260.00" xmlns="http://www.w3.org/2000/svg" xmlns:xlink="http://www.w3.org/1999/xlink">
<g id="graph0" class="graph" transform="scale(1 1) rotate(0) translate(4 256)">
<title>graph</title>
<polygon fill="white" stroke="none" points="-4,4 -4,-256 287,-256 287,4 -4,4"/>
<!-- :t0 -->
<g id="node1" class="node">
<title>:t0</title>
<ellipse fill="none" stroke="black" cx="110" cy="-90" rx="27" ry="18"/>
<text text-anchor="middle" x="110" y="-86.3" font-family="Times,serif" font-size="14.00">:t0</text>
</g>
<!-- :u0 -->
<g id="node2" class="node">
<title>:u0</title>
<ellipse fill="none" stroke="black" cx="90" cy="-18" rx="27" ry="18"/>
<text text-anchor="middle" x="90" y="-14.3" font-family="Times,serif" font-size="14.00">:u0</text>
</g>
<!-- :t0&#45;&gt;:u0 -->
<g id="edge1" class="edge">
<title>:t0&#45;&gt;:u0</title>
<path fill="none" stroke="black" d="M105.16,-72.05C103,-64.49 100.39,-55.37 97.96,-46.85"/>
<polygon fill="black" stroke="black" points="101.33,-45.9 95.21,-37.24 94.59,-47.82 101.33,-45.9"/>
</g>
<!-- :topic -->
<g id="node3" class="node">
<title>:topic</title>
<ellipse fill="none" stroke="black" cx="215" cy="-162" rx="30.59" ry="18"/>
<text text-anchor="middle" x="215" y="-158.3" font-family="Times,serif" font-size="14.00">:topic</text>
</g>
<!-- :topic&#45;&gt;:t0 -->
<g id="edge2" class="edge">
<title>:topic&#45;&gt;:t0</title>
<path fill="none" stroke="black" d="M195.25,-147.83C179.11,-137.07 156.09,-121.73 138.05,-109.7"/>
<polygon fill="black" stroke="black" points="140.13,-106.88 129.86,-104.24 136.24,-112.7 140.13,-106.88"/>
</g>
<!-- :t1 -->
<g id="node4" class="node">
<title>:t1</title>
<ellipse fill="none" stroke="black" cx="256" cy="-90" rx="27" ry="18"/>
<text text-anchor="middle" x="256" y="-86.3" font-family="Times,serif" font-size="14.00">:t1</text>
</g>
<!-- :topic&#45;&gt;:t1 -->
<g id="edge3" class="edge">
<title>:topic&#45;&gt;:t1</title>
<path fill="none" stroke="black" d="M224.51,-144.76C229.37,-136.46 235.41,-126.15 240.89,-116.79"/>
<polygon fill="black" stroke="black" points="243.74,-118.85 245.78,-108.45 237.7,-115.31 243.74,-118.85"/>
</g>
<!-- :hamburglar -->
<g id="node8" class="node">
<title>:hamburglar</title>
<ellipse fill="none" stroke="black" cx="203" cy="-18" rx="53.89" ry="18"/>
<text text-anchor="middle" x="203" y="-14.3" font-family="Times,serif" font-size="14.00">:hamburglar</text>
</g>
<!-- :t1&#45;&gt;:hamburglar -->
<g id="edge10" class="edge">
<title>:t1&#45;&gt;:hamburglar</title>
<path fill="none" stroke="black" d="M244.24,-73.46C237.92,-65.13 229.98,-54.63 222.75,-45.08"/>
<polygon fill="black" stroke="black" points="225.58,-43.03 216.76,-37.17 220,-47.25 225.58,-43.03"/>
</g>
<!-- :p1 -->
<g id="node5" class="node">
<title>:p1</title>
<ellipse fill="none" stroke="black" cx="27" cy="-162" rx="27" ry="18"/>
<text text-anchor="middle" x="27" y="-158.3" font-family="Times,serif" font-size="14.00">:p1</text>
</g>
<!-- :p1&#45;&gt;:t0 -->
<g id="edge4" class="edge">
<title>:p1&#45;&gt;:t0</title>
<path fill="none" stroke="black" d="M43.4,-147.17C55.22,-137.2 71.4,-123.56 84.85,-112.21"/>
<polygon fill="black" stroke="black" points="87.09,-114.9 92.48,-105.78 82.58,-109.55 87.09,-114.9"/>
</g>
<!-- :p1&#45;&gt;:u0 -->
<g id="edge5" class="edge">
<title>:p1&#45;&gt;:u0</title>
<path fill="none" stroke="black" d="M34.35,-144.43C45.11,-120.17 65.28,-74.71 78.15,-45.7"/>
<polygon fill="black" stroke="black" points="81.23,-47.41 82.08,-36.85 74.83,-44.57 81.23,-47.41"/>
</g>
<!-- :p0 -->
<g id="node6" class="node">
<title>:p0</title>
<ellipse fill="none" stroke="black" cx="99" cy="-162" rx="27" ry="18"/>
<text text-anchor="middle" x="99" y="-158.3" font-family="Times,serif" font-size="14.00">:p0</text>
</g>
<!-- :p0&#45;&gt;:t0 -->
<g id="edge6" class="edge">
<title>:p0&#45;&gt;:t0</title>
<path fill="none" stroke="black" d="M101.72,-143.7C102.88,-136.32 104.26,-127.52 105.56,-119.25"/>
<polygon fill="black" stroke="black" points="108.98,-120.02 107.08,-109.6 102.07,-118.93 108.98,-120.02"/>
</g>
<!-- :p0&#45;&gt;:u0 -->
<g id="edge7" class="edge">
<title>:p0&#45;&gt;:u0</title>
<path fill="none" stroke="black" d="M89.15,-144.97C83.49,-134.79 76.94,-121.1 74,-108 69.41,-87.52 73.98,-64.15 79.39,-46.5"/>
<polygon fill="black" stroke="black" points="82.63,-47.85 82.5,-37.25 76,-45.62 82.63,-47.85"/>
</g>
<!-- :post -->
<g id="node7" class="node">
<title>:post</title>
<ellipse fill="none" stroke="black" cx="63" cy="-234" rx="27.9" ry="18"/>
<text text-anchor="middle" x="63" y="-230.3" font-family="Times,serif" font-size="14.00">:post</text>
</g>
<!-- :post&#45;&gt;:p1 -->
<g id="edge8" class="edge">
<title>:post&#45;&gt;:p1</title>
<path fill="none" stroke="black" d="M54.47,-216.41C50.34,-208.39 45.29,-198.57 40.65,-189.54"/>
<polygon fill="black" stroke="black" points="43.85,-188.11 36.16,-180.82 37.62,-191.31 43.85,-188.11"/>
</g>
<!-- :post&#45;&gt;:p0 -->
<g id="edge9" class="edge">
<title>:post&#45;&gt;:p0</title>
<path fill="none" stroke="black" d="M71.53,-216.41C75.66,-208.39 80.71,-198.57 85.35,-189.54"/>
<polygon fill="black" stroke="black" points="88.38,-191.31 89.84,-180.82 82.15,-188.11 88.38,-191.31"/>
</g>
<!-- :user -->
<g id="node9" class="node">
<title>:user</title>
<ellipse fill="none" stroke="black" cx="183" cy="-90" rx="27.9" ry="18"/>
<text text-anchor="middle" x="183" y="-86.3" font-family="Times,serif" font-size="14.00">:user</text>
</g>
<!-- :user&#45;&gt;:u0 -->
<g id="edge12" class="edge">
<title>:user&#45;&gt;:u0</title>
<path fill="none" stroke="black" d="M165.51,-75.83C151.61,-65.37 131.95,-50.58 116.18,-38.7"/>
<polygon fill="black" stroke="black" points="118.72,-36.24 108.62,-33.02 114.51,-41.83 118.72,-36.24"/>
</g>
<!-- :user&#45;&gt;:hamburglar -->
<g id="edge11" class="edge">
<title>:user&#45;&gt;:hamburglar</title>
<path fill="none" stroke="black" d="M187.84,-72.05C189.97,-64.6 192.53,-55.64 194.94,-47.22"/>
<polygon fill="black" stroke="black" points="198.27,-48.31 197.65,-37.73 191.54,-46.38 198.27,-48.31"/>
</g>
</g>
</svg>
