<?xml version="1.0" encoding="UTF-8" standalone="no"?>
<!DOCTYPE svg PUBLIC "-//W3C//DTD SVG 1.1//EN"
 "http://www.w3.org/Graphics/SVG/1.1/DTD/svg11.dtd">
<!-- Generated by graphviz version 7.0.0 (20221023.0053)
 -->
<!-- Title: graph Pages: 1 -->
<svg width="283pt" height="188pt"
 viewBox="0.00 0.00 282.95 188.00" xmlns="http://www.w3.org/2000/svg" xmlns:xlink="http://www.w3.org/1999/xlink">
<g id="graph0" class="graph" transform="scale(1 1) rotate(0) translate(4 184)">
<title>graph</title>
<polygon fill="white" stroke="none" points="-4,4 -4,-184 278.95,-184 278.95,4 -4,4"/>
<!-- :t0 -->
<g id="node1" class="node">
<title>:t0</title>
<ellipse fill="none" stroke="black" cx="27" cy="-90" rx="27" ry="18"/>
<text text-anchor="middle" x="27" y="-86.3" font-family="Times,serif" font-size="14.00">:t0</text>
</g>
<!-- :u0 -->
<g id="node2" class="node">
<title>:u0</title>
<ellipse fill="none" stroke="black" cx="99" cy="-18" rx="27" ry="18"/>
<text text-anchor="middle" x="99" y="-14.3" font-family="Times,serif" font-size="14.00">:u0</text>
</g>
<!-- :t0&#45;&gt;:u0 -->
<g id="edge1" class="edge">
<title>:t0&#45;&gt;:u0</title>
<path fill="none" stroke="black" d="M41.92,-74.5C51.77,-64.92 64.86,-52.19 76.03,-41.34"/>
<polygon fill="black" stroke="black" points="78.29,-44.02 83.02,-34.54 73.41,-39 78.29,-44.02"/>
</g>
<!-- :t2 -->
<g id="node3" class="node">
<title>:t2</title>
<ellipse fill="none" stroke="black" cx="245" cy="-90" rx="27" ry="18"/>
<text text-anchor="middle" x="245" y="-86.3" font-family="Times,serif" font-size="14.00">:t2</text>
</g>
<!-- :hamburglar -->
<g id="node4" class="node">
<title>:hamburglar</title>
<ellipse fill="none" stroke="black" cx="221" cy="-18" rx="53.89" ry="18"/>
<text text-anchor="middle" x="221" y="-14.3" font-family="Times,serif" font-size="14.00">:hamburglar</text>
</g>
<!-- :t2&#45;&gt;:hamburglar -->
<g id="edge2" class="edge">
<title>:t2&#45;&gt;:hamburglar</title>
<path fill="none" stroke="black" d="M239.19,-72.05C236.61,-64.52 233.49,-55.44 230.58,-46.94"/>
<polygon fill="black" stroke="black" points="233.97,-46.03 227.41,-37.71 227.35,-48.3 233.97,-46.03"/>
</g>
<!-- :topic -->
<g id="node5" class="node">
<title>:topic</title>
<ellipse fill="none" stroke="black" cx="99" cy="-162" rx="30.59" ry="18"/>
<text text-anchor="middle" x="99" y="-158.3" font-family="Times,serif" font-size="14.00">:topic</text>
</g>
<!-- :topic&#45;&gt;:t0 -->
<g id="edge3" class="edge">
<title>:topic&#45;&gt;:t0</title>
<path fill="none" stroke="black" d="M83.73,-146.15C73.86,-136.56 60.84,-123.9 49.76,-113.13"/>
<polygon fill="black" stroke="black" points="52.45,-110.86 42.84,-106.4 47.57,-115.88 52.45,-110.86"/>
</g>
<!-- :topic&#45;&gt;:t2 -->
<g id="edge4" class="edge">
<title>:topic&#45;&gt;:t2</title>
<path fill="none" stroke="black" d="M122.13,-149.91C146.69,-138.13 185.68,-119.44 213.14,-106.28"/>
<polygon fill="black" stroke="black" points="214.53,-109.49 222.04,-102.01 211.51,-103.18 214.53,-109.49"/>
</g>
<!-- :t1 -->
<g id="node6" class="node">
<title>:t1</title>
<ellipse fill="none" stroke="black" cx="99" cy="-90" rx="27" ry="18"/>
<text text-anchor="middle" x="99" y="-86.3" font-family="Times,serif" font-size="14.00">:t1</text>
</g>
<!-- :topic&#45;&gt;:t1 -->
<g id="edge5" class="edge">
<title>:topic&#45;&gt;:t1</title>
<path fill="none" stroke="black" d="M99,-143.7C99,-136.41 99,-127.73 99,-119.54"/>
<polygon fill="black" stroke="black" points="102.5,-119.62 99,-109.62 95.5,-119.62 102.5,-119.62"/>
</g>
<!-- :t1&#45;&gt;:u0 -->
<g id="edge6" class="edge">
<title>:t1&#45;&gt;:u0</title>
<path fill="none" stroke="black" d="M99,-71.7C99,-64.41 99,-55.73 99,-47.54"/>
<polygon fill="black" stroke="black" points="102.5,-47.62 99,-37.62 95.5,-47.62 102.5,-47.62"/>
</g>
<!-- :user -->
<g id="node7" class="node">
<title>:user</title>
<ellipse fill="none" stroke="black" cx="172" cy="-90" rx="27.9" ry="18"/>
<text text-anchor="middle" x="172" y="-86.3" font-family="Times,serif" font-size="14.00">:user</text>
</g>
<!-- :user&#45;&gt;:u0 -->
<g id="edge8" class="edge">
<title>:user&#45;&gt;:u0</title>
<path fill="none" stroke="black" d="M156.87,-74.5C146.82,-64.86 133.44,-52.02 122.07,-41.12"/>
<polygon fill="black" stroke="black" points="124.59,-38.69 114.95,-34.29 119.74,-43.74 124.59,-38.69"/>
</g>
<!-- :user&#45;&gt;:hamburglar -->
<g id="edge7" class="edge">
<title>:user&#45;&gt;:hamburglar</title>
<path fill="none" stroke="black" d="M183.12,-73.12C188.9,-64.85 196.12,-54.54 202.7,-45.14"/>
<polygon fill="black" stroke="black" points="205.51,-47.24 208.37,-37.04 199.77,-43.22 205.51,-47.24"/>
</g>
</g>
</svg>
