<?xml version="1.0" encoding="UTF-8" standalone="no"?>
<!DOCTYPE svg PUBLIC "-//W3C//DTD SVG 1.1//EN"
 "http://www.w3.org/Graphics/SVG/1.1/DTD/svg11.dtd">
<!-- Generated by graphviz version 7.0.0 (20221023.0053)
 -->
<!-- Title: graph Pages: 1 -->
<svg width="354pt" height="188pt"
 viewBox="0.00 0.00 353.90 188.00" xmlns="http://www.w3.org/2000/svg" xmlns:xlink="http://www.w3.org/1999/xlink">
<g id="graph0" class="graph" transform="scale(1 1) rotate(0) translate(4 184)">
<title>graph</title>
<polygon fill="white" stroke="none" points="-4,4 -4,-184 349.9,-184 349.9,4 -4,4"/>
<!-- :l1 -->
<g id="node1" class="node">
<title>:l1</title>
<ellipse fill="none" stroke="black" cx="100.95" cy="-90" rx="27" ry="18"/>
<text text-anchor="middle" x="100.95" y="-86.3" font-family="Times,serif" font-size="14.00">:l1</text>
</g>
<!-- :p0 -->
<g id="node2" class="node">
<title>:p0</title>
<ellipse fill="none" stroke="black" cx="136.95" cy="-18" rx="27" ry="18"/>
<text text-anchor="middle" x="136.95" y="-14.3" font-family="Times,serif" font-size="14.00">:p0</text>
</g>
<!-- :l1&#45;&gt;:p0 -->
<g id="edge1" class="edge">
<title>:l1&#45;&gt;:p0</title>
<path fill="none" stroke="black" d="M109.3,-72.76C113.52,-64.55 118.76,-54.37 123.53,-45.09"/>
<polygon fill="black" stroke="black" points="126.49,-46.99 127.95,-36.49 120.26,-43.79 126.49,-46.99"/>
</g>
<!-- :u0 -->
<g id="node3" class="node">
<title>:u0</title>
<ellipse fill="none" stroke="black" cx="208.95" cy="-18" rx="27" ry="18"/>
<text text-anchor="middle" x="208.95" y="-14.3" font-family="Times,serif" font-size="14.00">:u0</text>
</g>
<!-- :l1&#45;&gt;:u0 -->
<g id="edge2" class="edge">
<title>:l1&#45;&gt;:u0</title>
<path fill="none" stroke="black" d="M119.76,-76.81C136.54,-65.93 161.34,-49.86 180.53,-37.42"/>
<polygon fill="black" stroke="black" points="182.23,-40.49 188.72,-32.11 178.42,-34.61 182.23,-40.49"/>
</g>
<!-- :like -->
<g id="node4" class="node">
<title>:like</title>
<ellipse fill="none" stroke="black" cx="172.95" cy="-162" rx="27" ry="18"/>
<text text-anchor="middle" x="172.95" y="-158.3" font-family="Times,serif" font-size="14.00">:like</text>
</g>
<!-- :like&#45;&gt;:l1 -->
<g id="edge3" class="edge">
<title>:like&#45;&gt;:l1</title>
<path fill="none" stroke="black" d="M158.03,-146.5C148.18,-136.92 135.09,-124.19 123.92,-113.34"/>
<polygon fill="black" stroke="black" points="126.54,-111 116.93,-106.54 121.66,-116.02 126.54,-111"/>
</g>
<!-- :l0 -->
<g id="node5" class="node">
<title>:l0</title>
<ellipse fill="none" stroke="black" cx="172.95" cy="-90" rx="27" ry="18"/>
<text text-anchor="middle" x="172.95" y="-86.3" font-family="Times,serif" font-size="14.00">:l0</text>
</g>
<!-- :like&#45;&gt;:l0 -->
<g id="edge4" class="edge">
<title>:like&#45;&gt;:l0</title>
<path fill="none" stroke="black" d="M172.95,-143.7C172.95,-136.41 172.95,-127.73 172.95,-119.54"/>
<polygon fill="black" stroke="black" points="176.45,-119.62 172.95,-109.62 169.45,-119.62 176.45,-119.62"/>
</g>
<!-- :l2 -->
<g id="node6" class="node">
<title>:l2</title>
<ellipse fill="none" stroke="black" cx="244.95" cy="-90" rx="27" ry="18"/>
<text text-anchor="middle" x="244.95" y="-86.3" font-family="Times,serif" font-size="14.00">:l2</text>
</g>
<!-- :like&#45;&gt;:l2 -->
<g id="edge5" class="edge">
<title>:like&#45;&gt;:l2</title>
<path fill="none" stroke="black" d="M187.87,-146.5C197.71,-136.92 210.81,-124.19 221.97,-113.34"/>
<polygon fill="black" stroke="black" points="224.23,-116.02 228.96,-106.54 219.35,-111 224.23,-116.02"/>
</g>
<!-- :l0&#45;&gt;:p0 -->
<g id="edge6" class="edge">
<title>:l0&#45;&gt;:p0</title>
<path fill="none" stroke="black" d="M164.6,-72.76C160.37,-64.55 155.14,-54.37 150.37,-45.09"/>
<polygon fill="black" stroke="black" points="153.63,-43.79 145.94,-36.49 147.41,-46.99 153.63,-43.79"/>
</g>
<!-- :l0&#45;&gt;:u0 -->
<g id="edge7" class="edge">
<title>:l0&#45;&gt;:u0</title>
<path fill="none" stroke="black" d="M181.3,-72.76C185.52,-64.55 190.76,-54.37 195.53,-45.09"/>
<polygon fill="black" stroke="black" points="198.49,-46.99 199.95,-36.49 192.26,-43.79 198.49,-46.99"/>
</g>
<!-- :l2&#45;&gt;:p0 -->
<g id="edge8" class="edge">
<title>:l2&#45;&gt;:p0</title>
<path fill="none" stroke="black" d="M226.14,-76.81C209.36,-65.93 184.55,-49.86 165.36,-37.42"/>
<polygon fill="black" stroke="black" points="167.47,-34.61 157.18,-32.11 163.66,-40.49 167.47,-34.61"/>
</g>
<!-- :l2&#45;&gt;:u0 -->
<g id="edge9" class="edge">
<title>:l2&#45;&gt;:u0</title>
<path fill="none" stroke="black" d="M236.6,-72.76C232.37,-64.55 227.14,-54.37 222.37,-45.09"/>
<polygon fill="black" stroke="black" points="225.63,-43.79 217.94,-36.49 219.41,-46.99 225.63,-43.79"/>
</g>
<!-- :post -->
<g id="node7" class="node">
<title>:post</title>
<ellipse fill="none" stroke="black" cx="27.95" cy="-90" rx="27.9" ry="18"/>
<text text-anchor="middle" x="27.95" y="-86.3" font-family="Times,serif" font-size="14.00">:post</text>
</g>
<!-- :post&#45;&gt;:p0 -->
<g id="edge10" class="edge">
<title>:post&#45;&gt;:p0</title>
<path fill="none" stroke="black" d="M47.18,-76.65C64.15,-65.75 89.11,-49.72 108.4,-37.33"/>
<polygon fill="black" stroke="black" points="110.11,-40.4 116.63,-32.05 106.32,-34.51 110.11,-40.4"/>
</g>
<!-- :user -->
<g id="node8" class="node">
<title>:user</title>
<ellipse fill="none" stroke="black" cx="317.95" cy="-90" rx="27.9" ry="18"/>
<text text-anchor="middle" x="317.95" y="-86.3" font-family="Times,serif" font-size="14.00">:user</text>
</g>
<!-- :user&#45;&gt;:u0 -->
<g id="edge11" class="edge">
<title>:user&#45;&gt;:u0</title>
<path fill="none" stroke="black" d="M298.71,-76.65C281.74,-65.75 256.79,-49.72 237.49,-37.33"/>
<polygon fill="black" stroke="black" points="239.57,-34.51 229.26,-32.05 235.79,-40.4 239.57,-34.51"/>
</g>
</g>
</svg>
