<?xml version="1.0" encoding="UTF-8" standalone="no"?>
<!DOCTYPE svg PUBLIC "-//W3C//DTD SVG 1.1//EN"
 "http://www.w3.org/Graphics/SVG/1.1/DTD/svg11.dtd">
<!-- Generated by graphviz version 7.0.0 (20221023.0053)
 -->
<!-- Title: graph Pages: 1 -->
<svg width="354pt" height="188pt"
 viewBox="0.00 0.00 353.90 188.00" xmlns="http://www.w3.org/2000/svg" xmlns:xlink="http://www.w3.org/1999/xlink">
<g id="graph0" class="graph" transform="scale(1 1) rotate(0) translate(4 184)">
<title>graph</title>
<polygon fill="white" stroke="none" points="-4,4 -4,-184 349.9,-184 349.9,4 -4,4"/>
<!-- :l1 -->
<g id="node1" class="node">
<title>:l1</title>
<ellipse fill="none" stroke="black" cx="100.95" cy="-90" rx="27" ry="18"/>
<text text-anchor="middle" x="100.95" y="-86.3" font-family="Times,serif" font-size="14.00">:l1</text>
</g>
<!-- :u1 -->
<g id="node2" class="node">
<title>:u1</title>
<ellipse fill="none" stroke="black" cx="27.95" cy="-18" rx="27" ry="18"/>
<text text-anchor="middle" x="27.95" y="-14.3" font-family="Times,serif" font-size="14.00">:u1</text>
</g>
<!-- :l1&#45;&gt;:u1 -->
<g id="edge1" class="edge">
<title>:l1&#45;&gt;:u1</title>
<path fill="none" stroke="black" d="M86.17,-74.83C76.15,-65.22 62.68,-52.31 51.23,-41.32"/>
<polygon fill="black" stroke="black" points="53.68,-38.83 44.04,-34.43 48.84,-43.88 53.68,-38.83"/>
</g>
<!-- :p0 -->
<g id="node3" class="node">
<title>:p0</title>
<ellipse fill="none" stroke="black" cx="243.95" cy="-18" rx="27" ry="18"/>
<text text-anchor="middle" x="243.95" y="-14.3" font-family="Times,serif" font-size="14.00">:p0</text>
</g>
<!-- :l1&#45;&gt;:p0 -->
<g id="edge2" class="edge">
<title>:l1&#45;&gt;:p0</title>
<path fill="none" stroke="black" d="M122.36,-78.52C146.29,-66.8 185.28,-47.72 212.64,-34.32"/>
<polygon fill="black" stroke="black" points="214.06,-37.53 221.5,-29.99 210.98,-31.24 214.06,-37.53"/>
</g>
<!-- :like -->
<g id="node4" class="node">
<title>:like</title>
<ellipse fill="none" stroke="black" cx="172.95" cy="-162" rx="27" ry="18"/>
<text text-anchor="middle" x="172.95" y="-158.3" font-family="Times,serif" font-size="14.00">:like</text>
</g>
<!-- :like&#45;&gt;:l1 -->
<g id="edge3" class="edge">
<title>:like&#45;&gt;:l1</title>
<path fill="none" stroke="black" d="M158.03,-146.5C148.18,-136.92 135.09,-124.19 123.92,-113.34"/>
<polygon fill="black" stroke="black" points="126.54,-111 116.93,-106.54 121.66,-116.02 126.54,-111"/>
</g>
<!-- :l0 -->
<g id="node5" class="node">
<title>:l0</title>
<ellipse fill="none" stroke="black" cx="172.95" cy="-90" rx="27" ry="18"/>
<text text-anchor="middle" x="172.95" y="-86.3" font-family="Times,serif" font-size="14.00">:l0</text>
</g>
<!-- :like&#45;&gt;:l0 -->
<g id="edge4" class="edge">
<title>:like&#45;&gt;:l0</title>
<path fill="none" stroke="black" d="M172.95,-143.7C172.95,-136.41 172.95,-127.73 172.95,-119.54"/>
<polygon fill="black" stroke="black" points="176.45,-119.62 172.95,-109.62 169.45,-119.62 176.45,-119.62"/>
</g>
<!-- :l2 -->
<g id="node6" class="node">
<title>:l2</title>
<ellipse fill="none" stroke="black" cx="244.95" cy="-90" rx="27" ry="18"/>
<text text-anchor="middle" x="244.95" y="-86.3" font-family="Times,serif" font-size="14.00">:l2</text>
</g>
<!-- :like&#45;&gt;:l2 -->
<g id="edge5" class="edge">
<title>:like&#45;&gt;:l2</title>
<path fill="none" stroke="black" d="M187.87,-146.5C197.71,-136.92 210.81,-124.19 221.97,-113.34"/>
<polygon fill="black" stroke="black" points="224.23,-116.02 228.96,-106.54 219.35,-111 224.23,-116.02"/>
</g>
<!-- :l0&#45;&gt;:p0 -->
<g id="edge6" class="edge">
<title>:l0&#45;&gt;:p0</title>
<path fill="none" stroke="black" d="M187.66,-74.5C197.37,-64.92 210.28,-52.19 221.29,-41.34"/>
<polygon fill="black" stroke="black" points="223.51,-44.06 228.18,-34.55 218.6,-39.08 223.51,-44.06"/>
</g>
<!-- :u0 -->
<g id="node7" class="node">
<title>:u0</title>
<ellipse fill="none" stroke="black" cx="99.95" cy="-18" rx="27" ry="18"/>
<text text-anchor="middle" x="99.95" y="-14.3" font-family="Times,serif" font-size="14.00">:u0</text>
</g>
<!-- :l0&#45;&gt;:u0 -->
<g id="edge7" class="edge">
<title>:l0&#45;&gt;:u0</title>
<path fill="none" stroke="black" d="M158.17,-74.83C148.15,-65.22 134.68,-52.31 123.23,-41.32"/>
<polygon fill="black" stroke="black" points="125.68,-38.83 116.04,-34.43 120.84,-43.88 125.68,-38.83"/>
</g>
<!-- :l2&#45;&gt;:p0 -->
<g id="edge8" class="edge">
<title>:l2&#45;&gt;:p0</title>
<path fill="none" stroke="black" d="M244.7,-71.7C244.6,-64.41 244.47,-55.73 244.36,-47.54"/>
<polygon fill="black" stroke="black" points="247.86,-47.57 244.21,-37.62 240.86,-47.67 247.86,-47.57"/>
</g>
<!-- :u2 -->
<g id="node8" class="node">
<title>:u2</title>
<ellipse fill="none" stroke="black" cx="171.95" cy="-18" rx="27" ry="18"/>
<text text-anchor="middle" x="171.95" y="-14.3" font-family="Times,serif" font-size="14.00">:u2</text>
</g>
<!-- :l2&#45;&gt;:u2 -->
<g id="edge9" class="edge">
<title>:l2&#45;&gt;:u2</title>
<path fill="none" stroke="black" d="M230.17,-74.83C220.15,-65.22 206.68,-52.31 195.23,-41.32"/>
<polygon fill="black" stroke="black" points="197.68,-38.83 188.04,-34.43 192.84,-43.88 197.68,-38.83"/>
</g>
<!-- :post -->
<g id="node9" class="node">
<title>:post</title>
<ellipse fill="none" stroke="black" cx="317.95" cy="-90" rx="27.9" ry="18"/>
<text text-anchor="middle" x="317.95" y="-86.3" font-family="Times,serif" font-size="14.00">:post</text>
</g>
<!-- :post&#45;&gt;:p0 -->
<g id="edge10" class="edge">
<title>:post&#45;&gt;:p0</title>
<path fill="none" stroke="black" d="M302.61,-74.5C292.43,-64.86 278.85,-52.02 267.33,-41.12"/>
<polygon fill="black" stroke="black" points="269.78,-38.62 260.11,-34.29 264.97,-43.7 269.78,-38.62"/>
</g>
<!-- :user -->
<g id="node10" class="node">
<title>:user</title>
<ellipse fill="none" stroke="black" cx="27.95" cy="-90" rx="27.9" ry="18"/>
<text text-anchor="middle" x="27.95" y="-86.3" font-family="Times,serif" font-size="14.00">:user</text>
</g>
<!-- :user&#45;&gt;:u1 -->
<g id="edge11" class="edge">
<title>:user&#45;&gt;:u1</title>
<path fill="none" stroke="black" d="M27.95,-71.7C27.95,-64.41 27.95,-55.73 27.95,-47.54"/>
<polygon fill="black" stroke="black" points="31.45,-47.62 27.95,-37.62 24.45,-47.62 31.45,-47.62"/>
</g>
<!-- :user&#45;&gt;:u0 -->
<g id="edge12" class="edge">
<title>:user&#45;&gt;:u0</title>
<path fill="none" stroke="black" d="M42.87,-74.5C52.71,-64.92 65.81,-52.19 76.97,-41.34"/>
<polygon fill="black" stroke="black" points="79.23,-44.02 83.96,-34.54 74.35,-39 79.23,-44.02"/>
</g>
<!-- :user&#45;&gt;:u2 -->
<g id="edge13" class="edge">
<title>:user&#45;&gt;:u2</title>
<path fill="none" stroke="black" d="M49.82,-78.37C73.99,-66.62 113.13,-47.59 140.56,-34.26"/>
<polygon fill="black" stroke="black" points="141.99,-37.46 149.45,-29.94 138.93,-31.16 141.99,-37.46"/>
</g>
</g>
</svg>
