<?xml version="1.0" encoding="UTF-8" standalone="no"?>
<!DOCTYPE svg PUBLIC "-//W3C//DTD SVG 1.1//EN"
 "http://www.w3.org/Graphics/SVG/1.1/DTD/svg11.dtd">
<!-- Generated by graphviz version 7.0.0 (20221023.0053)
 -->
<!-- Title: graph Pages: 1 -->
<svg width="206pt" height="188pt"
 viewBox="0.00 0.00 206.00 188.00" xmlns="http://www.w3.org/2000/svg" xmlns:xlink="http://www.w3.org/1999/xlink">
<g id="graph0" class="graph" transform="scale(1 1) rotate(0) translate(4 184)">
<title>graph</title>
<polygon fill="white" stroke="none" points="-4,4 -4,-184 202,-184 202,4 -4,4"/>
<!-- :topic -->
<g id="node1" class="node">
<title>:topic</title>
<ellipse fill="none" stroke="black" cx="61" cy="-90" rx="30.59" ry="18"/>
<text text-anchor="middle" x="61" y="-86.3" font-family="Times,serif" font-size="14.00">:topic</text>
</g>
<!-- :t0 -->
<g id="node2" class="node">
<title>:t0</title>
<ellipse fill="none" stroke="black" cx="27" cy="-18" rx="27" ry="18"/>
<text text-anchor="middle" x="27" y="-14.3" font-family="Times,serif" font-size="14.00">:t0</text>
</g>
<!-- :topic&#45;&gt;:t0 -->
<g id="edge1" class="edge">
<title>:topic&#45;&gt;:t0</title>
<path fill="none" stroke="black" d="M52.94,-72.41C49.05,-64.39 44.28,-54.57 39.89,-45.54"/>
<polygon fill="black" stroke="black" points="43.18,-44.3 35.66,-36.83 36.88,-47.36 43.18,-44.3"/>
</g>
<!-- :t2 -->
<g id="node3" class="node">
<title>:t2</title>
<ellipse fill="none" stroke="black" cx="99" cy="-18" rx="27" ry="18"/>
<text text-anchor="middle" x="99" y="-14.3" font-family="Times,serif" font-size="14.00">:t2</text>
</g>
<!-- :topic&#45;&gt;:t2 -->
<g id="edge2" class="edge">
<title>:topic&#45;&gt;:t2</title>
<path fill="none" stroke="black" d="M70.01,-72.41C74.36,-64.39 79.69,-54.57 84.59,-45.54"/>
<polygon fill="black" stroke="black" points="87.64,-47.26 89.34,-36.8 81.49,-43.92 87.64,-47.26"/>
</g>
<!-- :t1 -->
<g id="node4" class="node">
<title>:t1</title>
<ellipse fill="none" stroke="black" cx="171" cy="-18" rx="27" ry="18"/>
<text text-anchor="middle" x="171" y="-14.3" font-family="Times,serif" font-size="14.00">:t1</text>
</g>
<!-- :topic&#45;&gt;:t1 -->
<g id="edge3" class="edge">
<title>:topic&#45;&gt;:t1</title>
<path fill="none" stroke="black" d="M81.18,-76.16C98.39,-65.2 123.35,-49.32 142.59,-37.08"/>
<polygon fill="black" stroke="black" points="144.22,-40.19 150.78,-31.87 140.46,-34.28 144.22,-40.19"/>
</g>
<!-- :u0 -->
<g id="node5" class="node">
<title>:u0</title>
<ellipse fill="none" stroke="black" cx="137" cy="-90" rx="27" ry="18"/>
<text text-anchor="middle" x="137" y="-86.3" font-family="Times,serif" font-size="14.00">:u0</text>
</g>
<!-- :u0&#45;&gt;:t0 -->
<g id="edge4" class="edge">
<title>:u0&#45;&gt;:t0</title>
<path fill="none" stroke="black" d="M117.84,-76.81C100.65,-65.87 75.18,-49.66 55.58,-37.19"/>
<polygon fill="black" stroke="black" points="57.53,-34.28 47.22,-31.87 53.78,-40.19 57.53,-34.28"/>
</g>
<!-- :u0&#45;&gt;:t2 -->
<g id="edge5" class="edge">
<title>:u0&#45;&gt;:t2</title>
<path fill="none" stroke="black" d="M128.19,-72.76C123.73,-64.55 118.2,-54.37 113.16,-45.09"/>
<polygon fill="black" stroke="black" points="116.33,-43.6 108.49,-36.48 110.18,-46.94 116.33,-43.6"/>
</g>
<!-- :u0&#45;&gt;:t1 -->
<g id="edge6" class="edge">
<title>:u0&#45;&gt;:t1</title>
<path fill="none" stroke="black" d="M145.06,-72.41C148.95,-64.39 153.72,-54.57 158.11,-45.54"/>
<polygon fill="black" stroke="black" points="161.12,-47.36 162.34,-36.83 154.82,-44.3 161.12,-47.36"/>
</g>
<!-- :user -->
<g id="node6" class="node">
<title>:user</title>
<ellipse fill="none" stroke="black" cx="137" cy="-162" rx="27.9" ry="18"/>
<text text-anchor="middle" x="137" y="-158.3" font-family="Times,serif" font-size="14.00">:user</text>
</g>
<!-- :user&#45;&gt;:u0 -->
<g id="edge7" class="edge">
<title>:user&#45;&gt;:u0</title>
<path fill="none" stroke="black" d="M137,-143.7C137,-136.41 137,-127.73 137,-119.54"/>
<polygon fill="black" stroke="black" points="140.5,-119.62 137,-109.62 133.5,-119.62 140.5,-119.62"/>
</g>
</g>
</svg>
