<?xml version="1.0" encoding="UTF-8" standalone="no"?>
<!DOCTYPE svg PUBLIC "-//W3C//DTD SVG 1.1//EN"
 "http://www.w3.org/Graphics/SVG/1.1/DTD/svg11.dtd">
<!-- Generated by graphviz version 7.0.0 (20221023.0053)
 -->
<!-- Title: graph Pages: 1 -->
<svg width="354pt" height="188pt"
 viewBox="0.00 0.00 353.79 188.00" xmlns="http://www.w3.org/2000/svg" xmlns:xlink="http://www.w3.org/1999/xlink">
<g id="graph0" class="graph" transform="scale(1 1) rotate(0) translate(4 184)">
<title>graph</title>
<polygon fill="white" stroke="none" points="-4,4 -4,-184 349.79,-184 349.79,4 -4,4"/>
<!-- :u1 -->
<g id="node1" class="node">
<title>:u1</title>
<ellipse fill="none" stroke="black" cx="248.4" cy="-90" rx="27" ry="18"/>
<text text-anchor="middle" x="248.4" y="-86.3" font-family="Times,serif" font-size="14.00">:u1</text>
</g>
<!-- :my&#45;p3 -->
<g id="node2" class="node">
<title>:my&#45;p3</title>
<ellipse fill="none" stroke="black" cx="218.4" cy="-18" rx="36.29" ry="18"/>
<text text-anchor="middle" x="218.4" y="-14.3" font-family="Times,serif" font-size="14.00">:my&#45;p3</text>
</g>
<!-- :u1&#45;&gt;:my&#45;p3 -->
<g id="edge1" class="edge">
<title>:u1&#45;&gt;:my&#45;p3</title>
<path fill="none" stroke="black" d="M241.29,-72.41C237.97,-64.68 233.94,-55.27 230.19,-46.52"/>
<polygon fill="black" stroke="black" points="233.42,-45.16 226.26,-37.35 226.98,-47.92 233.42,-45.16"/>
</g>
<!-- :my&#45;p2 -->
<g id="node3" class="node">
<title>:my&#45;p2</title>
<ellipse fill="none" stroke="black" cx="309.4" cy="-18" rx="36.29" ry="18"/>
<text text-anchor="middle" x="309.4" y="-14.3" font-family="Times,serif" font-size="14.00">:my&#45;p2</text>
</g>
<!-- :u1&#45;&gt;:my&#45;p2 -->
<g id="edge2" class="edge">
<title>:u1&#45;&gt;:my&#45;p2</title>
<path fill="none" stroke="black" d="M261.63,-73.81C269.44,-64.85 279.49,-53.32 288.36,-43.14"/>
<polygon fill="black" stroke="black" points="290.84,-45.62 294.77,-35.79 285.56,-41.02 290.84,-45.62"/>
</g>
<!-- :topic -->
<g id="node4" class="node">
<title>:topic</title>
<ellipse fill="none" stroke="black" cx="172.4" cy="-90" rx="30.59" ry="18"/>
<text text-anchor="middle" x="172.4" y="-86.3" font-family="Times,serif" font-size="14.00">:topic</text>
</g>
<!-- :topic&#45;&gt;:my&#45;p3 -->
<g id="edge3" class="edge">
<title>:topic&#45;&gt;:my&#45;p3</title>
<path fill="none" stroke="black" d="M183.07,-72.76C188.45,-64.58 195.1,-54.45 201.18,-45.2"/>
<polygon fill="black" stroke="black" points="204.07,-47.18 206.64,-36.9 198.22,-43.33 204.07,-47.18"/>
</g>
<!-- :topic&#45;&gt;:my&#45;p2 -->
<g id="edge6" class="edge">
<title>:topic&#45;&gt;:my&#45;p2</title>
<path fill="none" stroke="black" d="M195.02,-77.44C216.7,-66.36 249.72,-49.49 274.72,-36.72"/>
<polygon fill="black" stroke="black" points="276.23,-39.88 283.54,-32.21 273.04,-33.64 276.23,-39.88"/>
</g>
<!-- :my&#45;p1 -->
<g id="node5" class="node">
<title>:my&#45;p1</title>
<ellipse fill="none" stroke="black" cx="36.4" cy="-18" rx="36.29" ry="18"/>
<text text-anchor="middle" x="36.4" y="-14.3" font-family="Times,serif" font-size="14.00">:my&#45;p1</text>
</g>
<!-- :topic&#45;&gt;:my&#45;p1 -->
<g id="edge4" class="edge">
<title>:topic&#45;&gt;:my&#45;p1</title>
<path fill="none" stroke="black" d="M149.94,-77.44C128.42,-66.36 95.63,-49.49 70.82,-36.72"/>
<polygon fill="black" stroke="black" points="72.56,-33.68 62.07,-32.21 69.36,-39.9 72.56,-33.68"/>
</g>
<!-- :my&#45;p0 -->
<g id="node6" class="node">
<title>:my&#45;p0</title>
<ellipse fill="none" stroke="black" cx="127.4" cy="-18" rx="36.29" ry="18"/>
<text text-anchor="middle" x="127.4" y="-14.3" font-family="Times,serif" font-size="14.00">:my&#45;p0</text>
</g>
<!-- :topic&#45;&gt;:my&#45;p0 -->
<g id="edge5" class="edge">
<title>:topic&#45;&gt;:my&#45;p0</title>
<path fill="none" stroke="black" d="M161.96,-72.76C156.7,-64.58 150.18,-54.45 144.24,-45.2"/>
<polygon fill="black" stroke="black" points="147.26,-43.43 138.91,-36.91 141.37,-47.21 147.26,-43.43"/>
</g>
<!-- :u0 -->
<g id="node7" class="node">
<title>:u0</title>
<ellipse fill="none" stroke="black" cx="96.4" cy="-90" rx="27" ry="18"/>
<text text-anchor="middle" x="96.4" y="-86.3" font-family="Times,serif" font-size="14.00">:u0</text>
</g>
<!-- :u0&#45;&gt;:my&#45;p1 -->
<g id="edge7" class="edge">
<title>:u0&#45;&gt;:my&#45;p1</title>
<path fill="none" stroke="black" d="M83.38,-73.81C75.88,-65.07 66.28,-53.87 57.71,-43.87"/>
<polygon fill="black" stroke="black" points="60.38,-41.6 51.21,-36.28 55.06,-46.15 60.38,-41.6"/>
</g>
<!-- :u0&#45;&gt;:my&#45;p0 -->
<g id="edge8" class="edge">
<title>:u0&#45;&gt;:my&#45;p0</title>
<path fill="none" stroke="black" d="M103.74,-72.41C107.21,-64.59 111.43,-55.06 115.34,-46.23"/>
<polygon fill="black" stroke="black" points="118.43,-47.9 119.27,-37.34 112.03,-45.07 118.43,-47.9"/>
</g>
<!-- :user -->
<g id="node8" class="node">
<title>:user</title>
<ellipse fill="none" stroke="black" cx="172.4" cy="-162" rx="27.9" ry="18"/>
<text text-anchor="middle" x="172.4" y="-158.3" font-family="Times,serif" font-size="14.00">:user</text>
</g>
<!-- :user&#45;&gt;:u1 -->
<g id="edge9" class="edge">
<title>:user&#45;&gt;:u1</title>
<path fill="none" stroke="black" d="M187.78,-146.83C198.39,-137.06 212.7,-123.88 224.75,-112.78"/>
<polygon fill="black" stroke="black" points="226.94,-115.52 231.93,-106.17 222.2,-110.37 226.94,-115.52"/>
</g>
<!-- :user&#45;&gt;:u0 -->
<g id="edge10" class="edge">
<title>:user&#45;&gt;:u0</title>
<path fill="none" stroke="black" d="M157.02,-146.83C146.41,-137.06 132.1,-123.88 120.05,-112.78"/>
<polygon fill="black" stroke="black" points="122.59,-110.37 112.87,-106.17 117.85,-115.52 122.59,-110.37"/>
</g>
</g>
</svg>
